# xmcd CD database file
#
# Track frame offsets:
#	187
#	11730
#	26275
#	42445
#	55237
#	66137
#	86935
#	97830
#	114987
#	130025
#	146157
#	162250
#
# Disc length: 2430 seconds
#
# Revision: 3
# Processed by: cddbd v1.4PL0 Copyright (c) Steve Scherf et al.
# Submitted via: CDex 1.50Beta7
#
DISCID=9b097c0c
DTITLE=Terry Garland - Edge Of The Valley
DYEAR=1992
DGENRE=Blues
TTITLE0=Hard Weather
TTITLE1=Trouble
TTITLE2=It's a Sin
TTITLE3=Mercy
TTITLE4=Grandma's Hands
TTITLE5=Lucky Man
TTITLE6=Lonesome Valley
TTITLE7=October
TTITLE8=Julie
TTITLE9=Love in Vain
TTITLE10=Brown Whiskey
TTITLE11=Home
EXTD=YEAR: 1992
EXTT0=
EXTT1=
EXTT2=
EXTT3=
EXTT4=
EXTT5=
EXTT6=
EXTT7=
EXTT8=
EXTT9=
EXTT10=
EXTT11=
PLAYORDER=
